<?xml version="1.0" encoding="UTF-8" standalone="no"?>
<svg
   width="43.391666mm"
   height="12.170855mm"
   fill="none"
   version="1.1"
   id="svg14"
   sodipodi:docname="logo-main-lg.svg"
   inkscape:version="1.1 (c68e22c387, 2021-05-23)"
   xmlns:inkscape="http://www.inkscape.org/namespaces/inkscape"
   xmlns:sodipodi="http://sodipodi.sourceforge.net/DTD/sodipodi-0.dtd"
   xmlns="http://www.w3.org/2000/svg"
   xmlns:svg="http://www.w3.org/2000/svg">
  <defs
     id="defs18" />
  <sodipodi:namedview
     id="namedview16"
     pagecolor="#505050"
     bordercolor="#eeeeee"
     borderopacity="1"
     inkscape:pageshadow="0"
     inkscape:pageopacity="0"
     inkscape:pagecheckerboard="0"
     showgrid="false"
     units="mm"
     inkscape:zoom="6.7378049"
     inkscape:cx="81.035293"
     inkscape:cy="34.358371"
     inkscape:window-width="1920"
     inkscape:window-height="996"
     inkscape:window-x="1912"
     inkscape:window-y="-8"
     inkscape:window-maximized="1"
     inkscape:current-layer="svg14"
     inkscape:document-units="mm"
     fit-margin-top="0"
     fit-margin-left="0"
     fit-margin-right="0"
     fit-margin-bottom="0" />
  <path
     d="m 3.85478,8.3801325 c 51.49982,-11.17351 104.79022,-11.17351 156.29022,0 1.085,0.2107 2.063,0.79308 2.767,1.6472705 0.703,0.8541 1.088,1.9268 1.088,3.0341 v 19.876999 c 0,1.1073 -0.385,2.18 -1.088,3.0341 -0.704,0.8542 -1.682,1.4366 -2.767,1.647301 -25.674,5.5859 -51.872,8.3954 -78.145,8.380099 -26.2556,0.0173 -52.4372,-2.787999 -78.09524,-8.3676 -1.09481,-0.2042 -2.08409,-0.7849 -2.79701,-1.6419 -0.712918,-0.857 -1.10472071,-1.9364 -1.10775,-3.052 V 13.061503 c 0.0013053,-1.1069 0.386463,-2.179 1.0896,-3.033 C 1.79274,9.1746325 2.77019,8.5919425 3.85478,8.3801325 Z"
     fill="#164194"
     id="path2"
     inkscape:label="path2"
     style="fill:none;fill-opacity:0" />
  <path
     d="m 47.204712,35.530598 v -2.76041 c 0.01926,-0.131439 0.05954,-0.258765 0.119386,-0.377267 h -0.137764 c -0.09454,0.202896 -0.201867,0.399617 -0.321545,0.588839 -0.800997,1.011831 -1.833708,1.815327 -3.010503,2.342271 -1.176941,0.526941 -2.46327,0.762031 -3.750041,0.685138 -1.617283,0.02705 -3.223541,-0.270819 -4.723795,-0.87642 -1.500251,-0.60545 -2.864064,-1.506281 -4.010864,-2.648965 -1.146656,-1.142685 -2.053069,-2.504142 -2.665285,-4.003807 -0.612363,-1.49981 -0.918325,-3.107244 -0.899651,-4.72747 V 11.873258 h 5.355271 v 11.262769 c -0.06014,0.962137 0.07704,1.926331 0.40329,2.833334 0.326103,0.906857 0.834226,1.737258 1.493048,2.439896 0.658971,0.702635 1.454527,1.262509 2.337711,1.645367 0.883185,0.382706 1.835178,0.58031 2.797462,0.58031 0.962431,0 1.914424,-0.197604 2.797608,-0.58031 0.883185,-0.382858 1.67874,-0.942732 2.337565,-1.645367 0.658968,-0.702638 1.167089,-1.533039 1.493194,-2.439896 0.326249,-0.907003 0.463424,-1.871199 0.403291,-2.833334 V 11.873258 h 5.392027 v 23.65734 z m 70.298358,-12.30268 c -0.003,-2.529727 0.74542,-5.002995 2.14805,-7.106348 1.40409,-2.103204 3.39924,-3.741809 5.73254,-4.707622 2.3333,-0.96596 4.90184,-1.215904 7.37776,-0.718074 2.47591,0.497829 4.74893,1.721084 6.52941,3.514358 l -3.79326,3.837081 c -1.02918,-1.02727 -2.33919,-1.726378 -3.76387,-2.008667 -1.42468,-0.28229 -2.90082,-0.135264 -4.24169,0.422553 -1.34235,0.55767 -2.48915,1.501282 -3.29485,2.711304 -0.80717,1.21017 -1.23796,2.632499 -1.23796,4.087612 0,1.454968 0.43079,2.877445 1.23796,4.087468 0.8057,1.21017 1.9525,2.153635 3.29485,2.711452 1.34087,0.55767 2.81701,0.704692 4.24169,0.422403 1.42468,-0.282289 2.73469,-0.98125 3.76387,-2.008667 l 3.80208,3.791061 c -1.78048,1.794157 -4.05203,3.018444 -6.52794,3.518036 -2.47592,0.499448 -5.04446,0.251708 -7.37923,-0.711899 -2.33477,-0.963754 -4.33285,-2.600006 -5.73842,-4.701445 -1.40704,-2.101588 -2.15834,-4.573976 -2.16128,-7.10385 M 12.097582,2 H 23.056008 V 7.5670175 H 11.867928 C 6.3565162,7.8890041 3.5458227,9.8581201 0.72571966,12.296544 V 5.7358103 C 3.4814253,3.7022956 7.0454794,2.3220602 12.097582,2 Z"
     fill="#ffffff"
     id="path8"
     style="fill:#164194;fill-opacity:1;stroke-width:1.47026" />
  <path
     fill-rule="evenodd"
     clip-rule="evenodd"
     d="m 95.75074,23.227918 c 0.0091,1.453939 0.447841,2.872591 1.260748,4.077173 0.812906,1.204436 1.963824,2.140843 3.307352,2.690869 1.34352,0.550169 2.81951,0.689405 4.24199,0.400203 1.42247,-0.2892 2.72747,-0.993895 3.75062,-2.025281 1.02286,-1.031239 1.7183,-2.343004 1.99765,-3.769743 0.28082,-1.426593 0.13232,-2.904349 -0.42491,-4.246842 -0.55723,-1.342346 -1.49966,-2.489296 -2.70719,-3.296174 -1.20737,-0.806878 -2.62632,-1.237514 -4.07776,-1.237514 -0.9689,0 -1.92824,0.191869 -2.82275,0.564727 -0.894504,0.372856 -1.706676,0.919202 -2.38961,1.607579 -0.683083,0.688522 -1.223402,1.505399 -1.589937,2.403874 -0.366537,0.898328 -0.55223,1.860612 -0.546203,2.831129 z m -7.56889,-2.622499 h 2.489293 c 0.66544,-3.083281 2.44563,-5.811344 4.998147,-7.658872 2.552514,-1.847527 5.69696,-2.684251 8.82831,-2.349032 3.13121,0.335072 6.02762,1.818562 8.13303,4.164655 2.10541,2.346239 3.26986,5.38938 3.26986,8.543966 0,3.154588 -1.16445,6.197725 -3.26986,8.543968 -2.10541,2.346091 -5.00182,3.829582 -8.13303,4.164801 -3.13135,0.335071 -6.275796,-0.501652 -8.82831,-2.349178 C 93.116773,31.8182 91.336583,29.090135 90.671143,26.006855 H 88.18185 v 9.523599 H 82.76233 V 11.873109 h 5.41952 z M 0,23.227771 c 0,-2.529433 0.74924381,-5.001969 2.1527527,-7.104583 1.403656,-2.102617 3.3985029,-3.740779 5.7319504,-4.707033 2.3335939,-0.966255 4.9008129,-1.217227 7.3767289,-0.721015 2.476062,0.496065 4.749376,1.717115 6.532212,3.508185 1.782836,1.791216 2.995211,4.072028 3.483338,6.553677 0.488124,2.481649 0.23024,5.05269 -0.741159,7.38746 -0.971253,2.334772 -2.612355,4.328296 -4.715413,5.728276 -2.102911,1.399979 -4.573387,2.143341 -7.098409,2.136141 C 9.3445228,35.999173 6.1087776,34.6483 3.7240181,32.252367 1.3391116,29.856578 0,26.611128 0,23.227771 Z m 5.4286361,0.05528 c 0,-1.455997 0.4310796,-2.879207 1.2385457,-4.089818 0.807466,-1.210464 1.95515,-2.154076 3.2977901,-2.711158 1.3427871,-0.557229 2.8203971,-0.702931 4.2458131,-0.418877 1.425416,0.284055 2.734828,0.985075 3.762539,2.014548 1.027711,1.029475 1.727554,2.341242 2.011167,3.769157 0.283465,1.427913 0.138057,2.908023 -0.418142,4.253164 -0.556199,1.345137 -1.498046,2.494735 -2.706599,3.303672 -1.208406,0.808788 -2.629116,1.240604 -4.082614,1.240604 -0.968019,0.0048 -1.927656,-0.182019 -2.8233379,-0.54973 C 9.0579695,29.726754 8.2434461,29.185407 7.5572763,28.501294 6.8709596,27.817183 6.326376,27.00413 5.9548416,26.108595 5.5831602,25.21306 5.3918796,24.252835 5.3918796,23.283052 Z"
     fill="#ffffff"
     id="path10"
     style="fill:#164194;fill-opacity:1;stroke-width:1.47026" />
  <path
     d="m 158.61738,35.530454 v -2.668522 c -0.0103,-0.147171 0.0118,-0.294638 0.0647,-0.432402 h -0.1382 c -1.34087,2.235972 -4.95183,3.579349 -7.30277,3.579349 -2.50679,-0.0013 -4.95625,-0.741747 -7.04401,-2.129084 -2.08924,-1.38719 -3.72417,-3.359982 -4.70042,-5.671965 -0.97625,-2.311835 -1.25119,-4.860676 -0.791,-7.328211 0.46019,-2.467682 1.6364,-4.744819 3.38013,-6.547353 1.74372,-1.802537 3.97999,-3.05064 6.42797,-3.588608 2.44798,-0.53782 4.99888,-0.341835 7.33659,0.563698 2.33624,0.905679 4.35637,2.480621 5.80605,4.528544 1.4482,2.047923 2.2642,4.477967 2.34359,6.987107 v 12.707447 z m -0.0456,-12.247403 c 0,-1.45585 -0.43225,-2.879207 -1.23942,-4.089671 -0.80718,-1.21061 -1.95545,-2.154075 -3.29779,-2.711304 -1.34235,-0.557081 -2.81996,-0.702931 -4.24611,-0.418877 -1.42468,0.284054 -2.73468,0.98522 -3.76239,2.014695 -1.02771,1.029475 -1.72756,2.341095 -2.01132,3.76901 -0.28228,1.42806 -0.13673,2.90817 0.41903,4.253163 0.55576,1.345138 1.49819,2.494882 2.70675,3.30367 1.20855,0.808938 2.62882,1.240607 4.08143,1.240607 1.94956,0 3.81826,-0.775562 5.19737,-2.15599 1.37763,-1.380572 2.15245,-3.252945 2.15245,-5.205303 z M 60.62494,43.406922 V 32.769895 c -0.0027,-0.149378 -0.02426,-0.297874 -0.06425,-0.441665 h 0.06425 c 1.45129,2.199212 4.951094,3.579346 7.293365,3.579346 2.509583,0.0081 4.965649,-0.725427 7.061211,-2.108792 2.095412,-1.383218 3.737103,-3.354837 4.719677,-5.667994 0.982573,-2.313304 1.262217,-4.865381 0.804231,-7.337031 -0.458132,-2.471655 -1.633604,-4.753202 -3.379537,-6.558972 -1.745784,-1.805771 -3.984548,-3.055785 -6.436057,-3.593459 -2.45151,-0.537673 -5.006819,-0.339188 -7.346295,0.570606 -2.339327,0.909796 -4.359023,2.490324 -5.806198,4.544128 -1.447174,2.053804 -2.25773,4.489582 -2.329919,7.002401 v 20.639345 h 5.419522 z m 0,-20.188267 c 0.0091,-1.453939 0.447692,-2.87274 1.260745,-4.077173 0.812906,-1.204436 1.963678,-2.140843 3.307201,-2.691014 1.343521,-0.550024 2.819663,-0.689259 4.242137,-0.400059 1.422328,0.2892 2.727476,0.993894 3.750629,2.025281 1.023006,1.03124 1.71844,2.343005 1.99823,3.769596 0.279789,1.42674 0.131734,2.904498 -0.425787,4.246844 -0.557522,1.342494 -1.499517,2.489443 -2.706895,3.29632 -1.207375,0.806879 -2.626322,1.23737 -4.077761,1.23737 -0.968902,1.46e-4 -1.928244,-0.191871 -2.822896,-0.564579 -0.894506,-0.372859 -1.706678,-0.919206 -2.389612,-1.607729 -0.682936,-0.688375 -1.223256,-1.505251 -1.589937,-2.403725 -0.366537,-0.898475 -0.552083,-1.860613 -0.546054,-2.831132 z"
     fill="#ffffff"
     id="path12"
     style="fill:#164194;fill-opacity:1;stroke-width:1.47026" />
</svg>
