<svg width="16" height="16" viewBox="0 0 16 16" fill="none" xmlns="http://www.w3.org/2000/svg">
<g id="Activity">
<path id="Stroke 1" d="M4.1875 10.1404L6.43225 7.22368L8.99275 9.23368L11.1895 6.39868" stroke="#727272" stroke-width="1.5" stroke-linecap="round" stroke-linejoin="round"/>
<path id="Stroke 2" fill-rule="evenodd" clip-rule="evenodd" d="M13.7501 0.762451C14.5466 0.762451 15.1916 1.40745 15.1916 2.20395C15.1916 2.9997 14.5466 3.64545 13.7501 3.64545C12.9536 3.64545 12.3086 2.9997 12.3086 2.20395C12.3086 1.40745 12.9536 0.762451 13.7501 0.762451Z" stroke="#727272" stroke-width="1.5" stroke-linecap="round" stroke-linejoin="round"/>
<path id="Stroke 4" d="M14.5664 5.95179C14.6662 6.62304 14.7119 7.37904 14.7119 8.22729C14.7119 13.4308 12.9779 15.1648 7.77441 15.1648C2.57166 15.1648 0.836914 13.4308 0.836914 8.22729C0.836914 3.02454 2.57166 1.28979 7.77441 1.28979C8.60691 1.28979 9.35016 1.33404 10.0117 1.43004" stroke="#727272" stroke-width="1.5" stroke-linecap="round" stroke-linejoin="round"/>
</g>
</svg>
